<?xml version="1.0" standalone="no"?>
<!DOCTYPE svg PUBLIC "-//W3C//DTD SVG 20010904//EN"
 "http://www.w3.org/TR/2001/REC-SVG-20010904/DTD/svg10.dtd">
<svg version="1.0" xmlns="http://www.w3.org/2000/svg"
 width="1080.000000pt" height="1080.000000pt" viewBox="0 0 1080.000000 1080.000000"
 preserveAspectRatio="xMidYMid meet">
<metadata>
Created by potrace 1.14, written by Peter Selinger 2001-2017
</metadata>
<g transform="translate(0.000000,1080.000000) scale(0.100000,-0.100000)"
fill="#000000" stroke="none">
<path d="M5100 10774 c-919 -66 -1678 -297 -2440 -742 -593 -347 -1186 -883
-1591 -1439 -581 -798 -916 -1668 -1026 -2658 -22 -200 -25 -808 -5 -1010 102
-1030 453 -1947 1054 -2751 288 -385 681 -777 1087 -1083 651 -492 1419 -826
2265 -986 485 -91 1078 -110 1591 -49 947 111 1878 487 2620 1059 579 446
1060 995 1417 1618 372 648 600 1360 685 2137 22 204 25 768 5 985 -50 539
-174 1060 -367 1550 -63 161 -232 507 -334 685 -534 931 -1384 1714 -2354
2171 -565 266 -1125 422 -1772 495 -134 15 -703 27 -835 18z m1311 -2319 c204
-30 355 -72 514 -142 251 -111 467 -279 615 -478 74 -100 136 -205 122 -205
-5 0 -47 23 -93 51 -302 182 -776 364 -1144 439 -98 20 -288 39 -392 40 l-53
0 0 -840 c0 -795 -1 -840 -18 -840 -9 0 -32 4 -50 9 -82 24 -224 33 -331 21
-530 -60 -907 -528 -852 -1057 36 -343 265 -650 581 -779 161 -66 338 -88 511
-65 349 47 653 300 769 641 51 149 51 145 48 1188 -2 534 -1 972 1 972 21 0
216 -125 326 -209 96 -73 296 -278 372 -381 62 -83 183 -273 183 -285 0 -2 18
-40 39 -84 22 -44 47 -104 56 -133 10 -29 21 -57 25 -63 5 -5 15 -35 23 -65 9
-30 23 -80 31 -110 92 -325 92 -817 1 -1180 -36 -141 -44 -168 -73 -250 -101
-286 -220 -518 -391 -765 -56 -82 -263 -335 -274 -335 -2 0 -4 71 -4 158 0
221 -17 320 -38 219 -4 -17 -18 -61 -32 -97 -174 -459 -687 -978 -1225 -1239
-110 -54 -348 -141 -385 -141 -10 0 -13 32 -13 157 l0 158 -44 -51 c-86 -98
-282 -232 -482 -328 -132 -63 -148 -71 -224 -99 -223 -84 -304 -104 -565 -143
-106 -16 -265 -15 -309 2 -32 12 -70 106 -140 343 -9 29 -16 61 -16 70 0 9 -9
52 -20 96 -19 71 -36 189 -72 465 -6 47 -10 243 -10 440 0 328 2 369 26 532
30 206 53 300 103 426 14 35 24 65 21 67 -2 2 -44 -4 -94 -14 -129 -26 -277
-80 -462 -167 -62 -30 -116 -54 -119 -54 -26 0 61 475 122 670 63 200 111 336
160 450 21 47 44 103 53 125 23 56 149 304 207 405 72 126 212 330 312 455
154 192 398 420 534 498 21 12 39 25 39 28 0 4 -21 13 -47 20 -66 19 -420 19
-526 0 -42 -8 -79 -12 -82 -9 -10 9 219 297 336 423 354 378 752 666 1154 833
123 51 243 94 328 118 51 13 106 29 122 34 208 62 616 88 846 55z"/>
</g>
</svg>
