<?xml version="1.0" standalone="no"?>
<!DOCTYPE svg PUBLIC "-//W3C//DTD SVG 20010904//EN"
 "http://www.w3.org/TR/2001/REC-SVG-20010904/DTD/svg10.dtd">
<svg version="1.0" xmlns="http://www.w3.org/2000/svg"
 width="720.000000pt" height="720.000000pt" viewBox="0 0 720.000000 720.000000"
 preserveAspectRatio="xMidYMid meet">
<metadata>
Created by potrace 1.11, written by Peter Selinger 2001-2013
</metadata>
<g transform="translate(0.000000,720.000000) scale(0.100000,-0.100000)"
fill="#000000" stroke="none">
<path d="M3295 7170 c-3 -5 -40 -10 -81 -10 -43 0 -74 -4 -74 -10 0 -6 -28
-10 -65 -10 -36 0 -65 -4 -65 -9 0 -4 -37 -11 -82 -15 -46 -4 -84 -11 -86 -16
-2 -6 -24 -10 -48 -10 -24 0 -44 -4 -44 -10 0 -5 -16 -10 -35 -10 -19 0 -35
-4 -35 -10 0 -5 -27 -12 -60 -16 -33 -4 -60 -11 -60 -15 0 -5 -11 -9 -24 -9
-14 0 -28 -4 -31 -10 -3 -5 -17 -10 -31 -10 -13 0 -24 -4 -24 -9 0 -5 -22 -12
-50 -16 -27 -4 -50 -11 -50 -16 0 -5 -9 -9 -20 -9 -11 0 -20 -4 -20 -10 0 -5
-11 -10 -25 -10 -14 0 -25 -4 -25 -9 0 -5 -16 -12 -35 -15 -36 -7 -118 -45
-123 -58 -2 -5 -10 -8 -18 -8 -17 0 -117 -51 -122 -62 -2 -5 -12 -8 -23 -8
-10 0 -19 -4 -19 -10 0 -5 -5 -10 -11 -10 -19 0 -83 -33 -100 -51 -8 -10 -27
-21 -41 -24 -14 -4 -35 -15 -47 -26 -11 -10 -25 -19 -31 -19 -5 0 -10 -4 -10
-10 0 -5 -8 -10 -19 -10 -10 0 -24 -7 -31 -15 -7 -8 -17 -15 -23 -15 -5 0 -17
-8 -26 -18 -9 -10 -31 -27 -48 -37 -18 -11 -33 -23 -33 -27 0 -4 -6 -8 -13 -8
-8 0 -24 -11 -37 -25 -13 -14 -27 -25 -32 -25 -4 0 -25 -16 -45 -35 -20 -19
-41 -35 -46 -35 -4 0 -33 -25 -62 -55 -30 -30 -59 -55 -64 -55 -12 0 -261
-249 -261 -261 0 -5 -25 -34 -55 -64 -30 -29 -55 -58 -55 -62 0 -5 -16 -26
-35 -46 -19 -20 -35 -41 -35 -45 0 -5 -11 -19 -25 -32 -14 -13 -25 -29 -25
-37 0 -7 -4 -13 -8 -13 -4 0 -16 -15 -27 -32 -10 -18 -27 -40 -37 -49 -10 -9
-18 -21 -18 -26 0 -6 -7 -16 -15 -23 -8 -7 -15 -21 -15 -31 0 -11 -4 -19 -10
-19 -5 0 -10 -5 -10 -10 0 -6 -9 -20 -19 -31 -11 -12 -22 -33 -26 -47 -3 -14
-14 -33 -24 -41 -18 -17 -51 -81 -51 -100 0 -6 -4 -11 -10 -11 -5 0 -10 -9
-10 -19 0 -11 -3 -21 -7 -23 -12 -5 -63 -105 -63 -122 0 -8 -3 -16 -7 -18 -14
-5 -52 -87 -59 -123 -3 -19 -10 -35 -15 -35 -5 0 -9 -11 -9 -25 0 -14 -4 -25
-10 -25 -5 0 -10 -9 -10 -20 0 -11 -4 -20 -9 -20 -5 0 -12 -22 -16 -50 -4 -27
-11 -50 -16 -50 -5 0 -9 -11 -9 -24 0 -14 -4 -28 -10 -31 -5 -3 -10 -17 -10
-31 0 -13 -4 -24 -9 -24 -4 0 -11 -27 -15 -60 -4 -33 -11 -60 -16 -60 -6 0
-10 -16 -10 -35 0 -19 -4 -35 -10 -35 -5 0 -10 -20 -10 -44 0 -24 -4 -46 -10
-48 -5 -1 -12 -40 -16 -85 -4 -46 -11 -83 -15 -83 -5 0 -9 -29 -9 -65 0 -37
-4 -65 -10 -65 -6 0 -10 -31 -10 -74 0 -41 -4 -78 -10 -81 -6 -4 -10 -117 -10
-305 0 -188 4 -301 10 -305 6 -3 10 -40 10 -81 0 -43 4 -74 10 -74 6 0 10 -28
10 -65 0 -36 4 -65 9 -65 4 0 11 -37 15 -83 4 -45 11 -84 16 -85 6 -2 10 -24
10 -48 0 -24 5 -44 10 -44 6 0 10 -16 10 -35 0 -19 4 -35 10 -35 5 0 12 -27
16 -60 4 -33 11 -60 15 -60 5 0 9 -11 9 -24 0 -14 5 -28 10 -31 6 -3 10 -17
10 -31 0 -13 4 -24 9 -24 5 0 12 -22 16 -50 4 -27 11 -50 16 -50 5 0 9 -9 9
-20 0 -11 5 -20 10 -20 6 0 10 -11 10 -25 0 -14 4 -25 9 -25 5 0 12 -16 15
-35 7 -36 45 -118 59 -123 4 -2 7 -10 7 -18 0 -17 51 -117 63 -122 4 -2 7 -12
7 -23 0 -10 5 -19 10 -19 6 0 10 -5 10 -11 0 -19 33 -83 51 -100 10 -8 21 -27
24 -41 4 -14 15 -35 26 -47 10 -11 19 -25 19 -31 0 -5 5 -10 10 -10 6 0 10 -8
10 -19 0 -10 7 -24 15 -31 8 -7 15 -17 15 -23 0 -5 8 -17 18 -26 10 -9 27 -31
37 -48 11 -18 23 -33 27 -33 4 0 8 -6 8 -13 0 -8 11 -24 25 -37 14 -13 25 -27
25 -32 0 -4 16 -25 35 -45 19 -20 35 -41 35 -46 0 -4 25 -33 55 -62 30 -30 55
-59 55 -64 0 -12 249 -261 261 -261 5 0 34 -25 64 -55 29 -30 58 -55 62 -55 5
0 26 -16 46 -35 20 -19 41 -35 45 -35 5 0 19 -11 32 -25 13 -14 29 -25 37 -25
7 0 13 -4 13 -8 0 -4 15 -16 33 -27 17 -10 39 -27 48 -37 9 -10 21 -18 26 -18
6 0 16 -7 23 -15 7 -8 21 -15 31 -15 11 0 19 -4 19 -10 0 -5 5 -10 10 -10 6 0
20 -9 31 -19 12 -11 33 -22 47 -26 14 -3 33 -14 41 -24 17 -18 81 -51 100 -51
6 0 11 -4 11 -10 0 -5 9 -10 19 -10 11 0 21 -3 23 -7 5 -12 105 -63 122 -63 8
0 16 -3 18 -7 5 -14 87 -52 123 -59 19 -3 35 -10 35 -15 0 -5 11 -9 25 -9 14
0 25 -4 25 -10 0 -5 9 -10 20 -10 11 0 20 -4 20 -9 0 -5 23 -12 50 -16 28 -4
50 -11 50 -16 0 -5 11 -9 24 -9 14 0 28 -4 31 -10 3 -5 17 -10 31 -10 13 0 24
-4 24 -9 0 -4 27 -11 60 -15 33 -4 60 -11 60 -16 0 -6 16 -10 35 -10 19 0 35
-4 35 -10 0 -5 20 -10 44 -10 24 0 46 -4 48 -10 2 -5 40 -12 86 -16 45 -4 82
-11 82 -15 0 -5 29 -9 65 -9 37 0 65 -4 65 -10 0 -6 31 -10 74 -10 41 0 78 -4
81 -10 4 -6 117 -10 305 -10 188 0 301 4 305 10 3 6 40 10 81 10 43 0 74 4 74
10 0 6 28 10 65 10 36 0 65 4 65 9 0 4 37 11 83 15 45 4 84 11 85 16 2 6 24
10 48 10 24 0 44 5 44 10 0 6 16 10 35 10 19 0 35 4 35 10 0 5 27 12 60 16 33
4 60 11 60 15 0 5 11 9 24 9 14 0 28 5 31 10 3 6 17 10 31 10 13 0 24 4 24 9
0 5 23 12 50 16 28 4 50 11 50 16 0 5 9 9 20 9 11 0 20 5 20 10 0 6 11 10 25
10 14 0 25 4 25 9 0 5 16 12 35 15 36 7 118 45 123 59 2 4 10 7 18 7 17 0 117
51 122 63 2 4 12 7 23 7 10 0 19 5 19 10 0 6 5 10 11 10 19 0 83 33 100 51 8
10 27 21 41 24 14 4 35 15 47 26 11 10 25 19 31 19 5 0 10 4 10 8 0 5 19 17
43 27 23 10 49 26 57 35 8 9 30 25 48 35 17 11 32 23 32 27 0 4 6 8 13 8 8 0
24 11 37 25 13 14 27 25 32 25 4 0 25 16 45 35 20 19 41 35 46 35 4 0 33 25
62 55 30 30 59 55 64 55 12 0 261 249 261 261 0 5 25 34 55 64 30 29 55 58 55
62 0 5 16 26 35 46 19 20 35 41 35 45 0 5 11 19 25 32 14 13 25 29 25 37 0 7
4 13 8 13 4 0 16 15 27 33 10 17 26 39 35 47 9 8 25 34 35 58 10 23 22 42 27
42 4 0 8 5 8 10 0 6 9 20 19 31 11 12 22 33 26 47 3 14 14 33 24 41 18 17 51
81 51 100 0 6 5 11 10 11 6 0 10 9 10 19 0 11 3 21 8 23 11 5 62 105 62 122 0
8 3 16 8 18 13 5 51 87 58 123 3 19 10 35 15 35 5 0 9 11 9 25 0 14 5 25 10
25 6 0 10 9 10 20 0 11 4 20 9 20 5 0 12 23 16 50 4 28 11 50 16 50 5 0 9 11
9 24 0 14 5 28 10 31 6 3 10 17 10 31 0 13 4 24 9 24 4 0 11 27 15 60 4 33 11
60 16 60 6 0 10 16 10 35 0 19 5 35 10 35 6 0 10 20 10 44 0 24 4 46 10 48 5
2 12 40 16 86 4 45 11 82 15 82 5 0 9 29 9 65 0 37 4 65 10 65 6 0 10 35 10
84 0 47 4 88 10 91 14 8 14 582 0 590 -5 3 -10 40 -10 81 0 43 -4 74 -10 74
-6 0 -10 28 -10 65 0 36 -4 65 -9 65 -4 0 -11 37 -15 83 -4 45 -11 84 -16 85
-6 2 -10 24 -10 48 0 24 -4 44 -10 44 -5 0 -10 16 -10 35 0 19 -4 35 -10 35
-5 0 -12 27 -16 60 -4 33 -11 60 -15 60 -5 0 -9 11 -9 24 0 14 -4 28 -10 31
-5 3 -10 17 -10 31 0 13 -4 24 -9 24 -5 0 -12 23 -16 50 -4 28 -11 50 -16 50
-5 0 -9 9 -9 20 0 11 -4 20 -10 20 -5 0 -10 11 -10 25 0 14 -4 25 -9 25 -5 0
-12 16 -15 35 -7 36 -45 118 -58 123 -5 2 -8 10 -8 18 0 17 -51 117 -62 122
-5 2 -8 12 -8 23 0 10 -4 19 -10 19 -5 0 -10 5 -10 11 0 19 -33 83 -51 100
-10 8 -21 27 -24 41 -4 14 -15 35 -26 47 -10 11 -19 25 -19 31 0 5 -4 10 -10
10 -5 0 -10 8 -10 19 0 10 -7 24 -15 31 -8 7 -15 17 -15 23 0 5 -8 17 -18 26
-10 9 -27 31 -37 49 -11 17 -23 32 -27 32 -4 0 -8 6 -8 13 0 8 -11 24 -25 37
-14 13 -25 27 -25 32 0 4 -16 25 -35 45 -19 20 -35 41 -35 46 0 4 -25 33 -55
62 -30 30 -55 59 -55 64 0 12 -249 261 -261 261 -5 0 -34 25 -64 55 -29 30
-58 55 -62 55 -5 0 -26 16 -46 35 -20 19 -41 35 -45 35 -5 0 -19 11 -32 25
-13 14 -29 25 -37 25 -7 0 -13 4 -13 8 0 4 -15 16 -32 27 -18 10 -40 27 -49
37 -9 10 -21 18 -26 18 -6 0 -16 7 -23 15 -7 8 -21 15 -31 15 -11 0 -19 5 -19
10 0 6 -5 10 -10 10 -6 0 -20 9 -31 19 -12 11 -33 22 -47 26 -14 3 -33 14 -41
24 -17 18 -81 51 -100 51 -6 0 -11 5 -11 10 0 6 -9 10 -19 10 -11 0 -21 3 -23
8 -5 11 -105 62 -122 62 -8 0 -16 3 -18 8 -5 13 -87 51 -123 58 -19 3 -35 10
-35 15 0 5 -11 9 -25 9 -14 0 -25 5 -25 10 0 6 -9 10 -20 10 -11 0 -20 4 -20
9 0 5 -22 12 -50 16 -27 4 -50 11 -50 16 0 5 -11 9 -24 9 -14 0 -28 5 -31 10
-3 6 -17 10 -31 10 -13 0 -24 4 -24 9 0 4 -27 11 -60 15 -33 4 -60 11 -60 16
0 6 -16 10 -35 10 -19 0 -35 5 -35 10 0 6 -20 10 -44 10 -24 0 -46 4 -48 10
-1 5 -40 12 -85 16 -46 4 -83 11 -83 15 0 5 -29 9 -65 9 -37 0 -65 4 -65 10 0
6 -31 10 -74 10 -41 0 -78 5 -81 10 -4 6 -117 10 -305 10 -188 0 -301 -4 -305
-10z m1100 -939 c106 -11 257 -40 310 -61 11 -4 38 -13 60 -20 43 -14 247
-109 255 -120 3 -3 23 -17 44 -30 89 -54 254 -207 294 -272 9 -16 20 -28 24
-28 4 0 8 -4 8 -10 0 -5 17 -34 38 -62 35 -50 35 -52 10 -35 -15 9 -34 17 -43
17 -8 0 -15 4 -15 9 0 11 -98 63 -235 126 -99 45 -123 55 -134 55 -6 0 -25 8
-43 18 -18 10 -73 31 -123 46 -49 16 -99 32 -110 37 -57 23 -198 59 -232 59
-21 0 -43 4 -48 8 -16 14 -133 31 -262 38 l-123 6 0 -702 c0 -665 -1 -702 -17
-695 -103 40 -434 27 -479 -18 -4 -4 -14 -7 -22 -7 -18 0 -126 -51 -130 -62
-2 -4 -9 -8 -15 -8 -7 0 -24 -11 -39 -25 -15 -14 -31 -25 -35 -25 -10 0 -117
-111 -153 -159 -58 -77 -105 -180 -140 -312 -20 -75 -9 -318 18 -399 91 -270
294 -470 557 -547 69 -20 341 -30 384 -15 14 6 53 18 86 28 142 42 305 157
396 281 22 29 39 55 39 59 0 4 6 15 14 23 12 14 37 70 66 146 4 11 13 36 21
55 11 29 14 189 17 878 1 463 5 842 8 842 2 0 22 -11 44 -25 22 -14 43 -25 48
-25 5 0 17 -9 27 -20 10 -11 23 -20 28 -20 26 0 259 -211 353 -320 34 -40 140
-189 166 -235 29 -50 108 -215 108 -225 0 -6 4 -18 9 -28 24 -47 55 -147 71
-227 7 -33 16 -69 20 -80 14 -34 30 -220 30 -353 0 -133 -16 -333 -30 -367 -4
-11 -13 -51 -20 -90 -6 -38 -18 -87 -26 -108 -8 -20 -14 -51 -14 -67 0 -17 -4
-30 -8 -30 -4 0 -14 -21 -21 -47 -14 -47 -20 -64 -57 -148 -30 -70 -83 -178
-122 -250 -62 -112 -77 -135 -84 -135 -5 0 -8 -5 -8 -10 0 -10 -48 -88 -60
-100 -3 -3 -23 -30 -45 -60 -22 -30 -45 -61 -52 -68 -7 -7 -29 -33 -49 -57
-20 -25 -39 -45 -43 -45 -3 0 -6 44 -7 98 -1 112 -15 222 -28 223 -12 1 -30
-35 -52 -106 -49 -160 -199 -385 -372 -561 -108 -110 -178 -174 -237 -218 -22
-17 -42 -33 -45 -36 -3 -3 -30 -23 -60 -45 -30 -22 -56 -43 -58 -47 -2 -5 -9
-8 -15 -8 -7 0 -36 -16 -65 -35 -58 -40 -243 -135 -261 -135 -6 0 -19 -4 -29
-9 -30 -15 -66 -28 -111 -41 -23 -6 -49 -14 -57 -17 -12 -4 -14 17 -14 120 0
69 -4 128 -8 131 -5 3 -41 -26 -80 -64 -39 -39 -75 -70 -81 -70 -5 0 -11 -4
-13 -8 -4 -10 -152 -105 -190 -123 -16 -7 -28 -16 -28 -21 0 -4 -6 -8 -14 -8
-8 0 -37 -11 -64 -25 -28 -14 -55 -25 -61 -25 -6 0 -11 -4 -11 -10 0 -5 -6
-10 -12 -10 -11 0 -118 -37 -173 -60 -44 -18 -62 -24 -115 -37 -30 -8 -79 -18
-107 -23 -29 -6 -79 -15 -110 -21 -92 -16 -243 -23 -256 -10 -6 6 -17 11 -25
11 -7 0 -19 6 -27 13 -13 14 -74 187 -93 267 -32 133 -50 222 -61 310 -6 41
-15 107 -20 145 -14 94 -14 742 0 825 6 36 15 90 19 120 14 93 49 221 74 271
9 18 16 41 16 52 0 18 -5 19 -57 13 -65 -8 -133 -25 -147 -38 -6 -4 -19 -8
-31 -8 -12 0 -25 -4 -31 -8 -5 -4 -27 -14 -49 -21 -48 -16 -109 -42 -189 -82
l-59 -29 7 73 c8 87 25 183 37 215 5 13 9 36 9 53 0 16 4 37 9 47 6 9 18 51
27 92 9 41 20 82 25 90 14 30 59 175 59 193 0 9 5 17 10 17 6 0 10 7 10 15 0
8 4 23 9 33 18 33 41 90 41 100 0 6 9 27 19 49 11 21 37 74 58 118 35 71 75
148 150 283 13 24 28 48 34 55 6 7 29 41 52 77 118 185 302 397 439 506 37 30
69 58 73 64 3 5 20 17 38 25 18 9 45 26 61 39 l29 24 -29 18 c-26 17 -51 19
-265 19 -214 -1 -236 1 -226 15 40 53 103 136 107 140 4 3 19 22 34 43 16 20
45 54 65 75 20 21 57 61 82 88 65 69 175 172 234 219 28 22 52 42 55 45 20 20
124 97 169 125 9 6 18 13 21 16 11 13 220 134 300 174 102 51 206 95 225 95 7
0 15 3 17 8 3 6 134 51 198 67 14 4 41 11 60 16 173 48 455 69 655 50z"/>
</g>
</svg>
