<?xml version="1.0" standalone="no"?>
<!DOCTYPE svg PUBLIC "-//W3C//DTD SVG 20010904//EN"
 "http://www.w3.org/TR/2001/REC-SVG-20010904/DTD/svg10.dtd">
<svg version="1.0" xmlns="http://www.w3.org/2000/svg"
 width="1080.000000pt" height="1080.000000pt" viewBox="0 0 1080.000000 1080.000000"
 preserveAspectRatio="xMidYMid meet">
<metadata>
Created by potrace 1.14, written by Peter Selinger 2001-2017
</metadata>
<g transform="translate(0.000000,1080.000000) scale(0.100000,-0.100000)"
fill="#000000" stroke="none">
<path d="M4954 10745 c-14 -10 -48 -14 -126 -15 -60 0 -110 -4 -113 -10 -3 -5
-39 -10 -78 -10 -44 0 -83 -6 -101 -15 -16 -9 -55 -15 -91 -15 -43 0 -66 -5
-75 -15 -8 -9 -29 -15 -56 -15 -23 0 -46 -4 -49 -10 -3 -5 -30 -10 -59 -10
-35 0 -58 -5 -66 -15 -7 -9 -29 -15 -55 -15 -26 0 -48 -6 -55 -15 -7 -8 -28
-15 -46 -15 -19 0 -34 -4 -34 -10 0 -5 -20 -10 -44 -10 -26 0 -51 -6 -60 -15
-8 -8 -27 -15 -43 -15 -15 0 -37 -7 -47 -15 -11 -8 -30 -15 -42 -15 -13 0 -26
-4 -29 -10 -3 -5 -19 -10 -34 -10 -16 0 -34 -7 -41 -15 -7 -8 -25 -15 -41 -15
-16 0 -47 -11 -69 -25 -22 -14 -53 -25 -69 -25 -16 0 -31 -6 -35 -15 -3 -8
-14 -15 -25 -15 -11 0 -23 -4 -26 -10 -3 -5 -19 -10 -35 -10 -16 0 -35 -7 -44
-15 -8 -8 -21 -15 -29 -15 -8 0 -20 -7 -27 -15 -7 -8 -20 -15 -29 -16 -9 0
-29 -9 -46 -20 -16 -10 -37 -21 -45 -25 -8 -3 -22 -10 -30 -15 -8 -5 -22 -12
-30 -15 -24 -10 -73 -34 -90 -44 -8 -4 -58 -29 -112 -55 -53 -26 -104 -55
-114 -66 -9 -10 -25 -19 -34 -19 -10 0 -23 -7 -30 -15 -7 -8 -18 -15 -24 -15
-7 0 -23 -11 -36 -25 -13 -14 -31 -25 -41 -25 -9 0 -22 -7 -29 -15 -7 -8 -19
-15 -27 -15 -7 0 -26 -11 -41 -25 -15 -14 -32 -25 -37 -25 -6 0 -29 -18 -50
-40 -21 -22 -46 -40 -55 -40 -9 0 -27 -11 -40 -25 -13 -14 -29 -25 -35 -25 -7
0 -30 -18 -51 -40 -22 -22 -45 -40 -53 -40 -8 0 -40 -25 -72 -55 -32 -30 -63
-55 -70 -55 -7 0 -50 -35 -96 -77 -46 -43 -129 -121 -185 -173 -57 -52 -146
-141 -198 -198 -52 -56 -130 -139 -172 -185 -43 -46 -78 -89 -78 -96 0 -7 -25
-38 -55 -70 -30 -32 -55 -64 -55 -72 0 -8 -18 -31 -40 -53 -22 -21 -40 -44
-40 -51 0 -6 -11 -22 -25 -35 -14 -13 -25 -31 -25 -40 0 -9 -18 -34 -40 -55
-22 -21 -40 -44 -40 -50 0 -5 -11 -22 -25 -37 -14 -15 -25 -34 -25 -41 0 -8
-7 -20 -15 -27 -8 -7 -15 -20 -15 -29 0 -10 -11 -28 -25 -41 -14 -13 -25 -29
-25 -36 0 -6 -7 -17 -15 -24 -8 -7 -15 -20 -15 -30 0 -9 -9 -25 -19 -34 -11
-10 -34 -48 -51 -84 -18 -37 -36 -74 -41 -82 -5 -8 -12 -22 -15 -30 -3 -8 -9
-22 -14 -30 -5 -8 -17 -31 -26 -50 -8 -19 -20 -42 -25 -50 -5 -8 -11 -19 -13
-25 -2 -5 -7 -17 -10 -25 -3 -8 -15 -28 -25 -45 -11 -16 -20 -37 -20 -46 -1
-9 -8 -22 -16 -29 -8 -7 -15 -19 -15 -27 0 -8 -7 -21 -15 -29 -8 -9 -15 -28
-15 -44 0 -16 -5 -32 -10 -35 -6 -3 -10 -15 -10 -26 0 -11 -7 -22 -15 -25 -9
-4 -15 -19 -15 -35 0 -16 -11 -47 -25 -69 -14 -22 -25 -53 -25 -69 0 -16 -7
-34 -15 -41 -8 -7 -15 -25 -15 -41 0 -15 -4 -31 -10 -34 -5 -3 -10 -16 -10
-29 0 -12 -7 -31 -15 -42 -8 -10 -15 -32 -15 -47 0 -16 -7 -35 -15 -43 -9 -9
-15 -34 -15 -60 0 -24 -4 -44 -10 -44 -5 0 -10 -15 -10 -34 0 -18 -7 -39 -15
-46 -9 -7 -15 -29 -15 -55 0 -26 -6 -48 -15 -55 -10 -8 -15 -31 -15 -66 0 -29
-5 -56 -10 -59 -6 -3 -10 -26 -10 -49 0 -27 -6 -48 -15 -56 -10 -9 -15 -32
-15 -75 0 -36 -6 -75 -15 -91 -9 -18 -15 -57 -15 -101 0 -39 -5 -75 -10 -78
-6 -3 -10 -53 -10 -113 -1 -78 -5 -112 -15 -126 -23 -30 -22 -878 0 -896 12
-10 15 -37 15 -121 0 -61 4 -110 10 -114 5 -3 10 -41 10 -84 0 -52 5 -83 15
-97 9 -12 14 -43 15 -85 0 -47 4 -70 15 -79 9 -8 15 -29 15 -56 0 -23 5 -46
10 -49 6 -3 10 -30 10 -60 0 -34 5 -59 15 -69 9 -8 15 -33 15 -59 0 -31 5 -47
15 -51 9 -3 15 -18 15 -40 0 -19 5 -38 10 -41 6 -3 10 -23 10 -44 0 -20 7 -46
15 -57 8 -10 15 -30 15 -44 0 -14 7 -34 15 -44 8 -11 15 -30 15 -42 0 -13 5
-26 10 -29 6 -3 10 -19 10 -34 0 -16 7 -34 15 -41 8 -7 15 -25 15 -40 0 -28
28 -92 42 -98 5 -2 8 -19 8 -38 0 -22 6 -37 15 -40 8 -4 15 -17 15 -30 0 -13
5 -24 10 -24 6 0 10 -12 10 -27 1 -16 12 -46 25 -68 14 -22 28 -47 31 -55 4
-8 14 -32 22 -52 9 -21 19 -38 24 -38 4 0 8 -8 8 -19 0 -10 7 -24 15 -31 8 -7
15 -20 16 -29 0 -9 9 -29 20 -46 10 -16 22 -37 25 -45 30 -72 99 -202 115
-216 10 -9 19 -25 19 -34 0 -10 7 -23 15 -30 8 -7 15 -19 15 -27 0 -8 11 -24
25 -35 14 -11 25 -28 25 -38 0 -9 7 -23 15 -30 8 -7 15 -20 15 -29 0 -10 11
-28 25 -41 14 -13 25 -29 25 -35 0 -6 18 -29 40 -50 22 -21 40 -46 40 -55 0
-9 11 -27 25 -40 14 -13 25 -30 25 -38 0 -7 18 -32 40 -54 22 -23 40 -46 40
-51 0 -6 25 -36 55 -68 30 -32 55 -63 55 -70 0 -7 36 -50 80 -95 44 -45 80
-87 80 -93 0 -15 377 -391 392 -391 7 0 49 -36 94 -80 45 -44 88 -80 96 -80 7
0 36 -22 63 -50 27 -27 54 -50 60 -50 6 0 30 -18 54 -40 23 -22 48 -40 55 -40
7 0 23 -11 36 -25 13 -14 30 -25 37 -25 7 0 33 -18 57 -40 24 -22 48 -40 53
-40 5 0 18 -9 28 -20 10 -11 46 -33 80 -49 33 -16 67 -36 74 -45 7 -9 19 -16
26 -16 7 0 18 -7 25 -15 7 -8 20 -15 30 -15 9 0 25 -9 35 -20 9 -10 65 -43
124 -72 58 -28 108 -56 109 -60 2 -4 9 -8 15 -8 7 0 84 -36 171 -80 88 -44
167 -80 176 -80 20 0 77 -27 85 -41 4 -5 21 -9 40 -9 19 0 36 -4 40 -9 10 -17
67 -41 97 -41 16 0 31 -6 34 -15 4 -9 19 -15 39 -15 18 0 38 -7 45 -15 7 -8
25 -15 41 -15 15 0 31 -4 34 -10 3 -5 18 -10 33 -10 15 0 36 -7 46 -15 11 -8
37 -15 57 -15 21 0 41 -4 44 -10 3 -5 19 -10 35 -10 16 0 35 -7 44 -15 8 -8
32 -15 54 -15 23 0 45 -6 52 -15 8 -10 31 -15 71 -15 32 0 61 -4 64 -10 3 -5
26 -10 49 -10 27 0 48 -6 56 -15 9 -11 32 -15 79 -15 42 -1 73 -6 85 -15 14
-10 45 -15 97 -15 43 0 81 -4 84 -10 4 -6 53 -10 114 -10 84 0 111 -3 121 -15
19 -23 881 -23 900 0 10 12 37 15 121 15 61 0 110 4 114 10 3 5 44 10 89 10
62 0 87 4 96 15 9 11 32 15 80 15 48 0 71 4 80 15 8 9 29 15 56 15 23 0 46 4
49 10 3 5 32 10 64 10 40 0 63 5 71 15 7 9 29 15 55 15 26 0 48 6 55 15 7 8
25 15 41 15 15 0 31 5 34 10 3 6 26 10 49 10 27 0 48 6 56 15 7 8 25 15 41 15
15 0 31 5 34 10 3 6 19 10 34 10 16 0 34 7 41 15 7 8 27 15 45 15 18 0 38 7
45 15 7 8 23 15 36 15 12 0 44 11 70 25 26 14 57 25 69 25 13 0 28 7 35 15 7
8 21 15 31 15 11 0 19 5 19 10 0 6 15 10 34 10 19 0 37 4 41 9 6 11 287 151
302 151 6 0 16 7 23 15 7 8 21 15 30 15 10 0 20 3 22 8 2 4 21 15 43 26 22 10
47 22 55 27 8 5 24 13 35 18 11 5 29 18 39 30 11 11 25 21 32 21 18 0 73 31
103 58 14 12 31 22 37 22 6 0 21 11 34 25 13 14 31 25 41 25 9 0 22 7 29 15 7
8 19 15 27 15 8 0 32 18 54 40 22 22 46 40 53 40 7 0 23 11 36 25 13 14 31 25
40 25 9 0 34 18 55 40 21 22 44 40 50 40 5 0 33 22 60 50 28 27 57 49 65 50 9
0 51 36 94 79 44 44 89 82 100 85 26 7 396 378 396 397 0 8 36 50 80 94 44 44
80 86 80 95 1 8 23 38 50 65 28 28 50 55 50 60 0 6 18 29 40 50 22 21 40 46
40 55 0 9 11 27 25 40 14 13 25 29 25 36 0 7 18 31 40 53 22 22 40 46 40 54 0
8 7 20 15 27 8 7 15 20 15 29 0 10 11 28 25 41 14 13 25 28 25 34 0 6 10 23
23 37 26 30 57 85 57 103 0 7 10 21 21 32 12 10 25 28 30 39 5 11 13 27 18 35
5 8 17 33 27 55 11 22 22 42 27 43 4 2 7 12 7 22 0 9 7 23 15 30 8 7 15 17 15
23 0 15 140 296 151 302 5 4 9 22 9 41 0 19 5 34 10 34 6 0 10 8 10 19 0 10 7
24 15 31 8 7 15 22 15 35 0 12 11 43 25 69 14 26 25 58 25 70 0 13 7 29 15 36
8 7 15 27 15 45 0 18 7 38 15 45 8 7 15 25 15 41 0 15 5 31 10 34 6 3 10 19
10 34 0 16 7 34 15 41 9 8 15 29 15 56 0 23 5 46 10 49 6 3 10 19 10 34 0 16
7 34 15 41 9 7 15 29 15 55 0 26 6 48 15 55 10 8 15 31 15 71 0 32 5 61 10 64
6 3 10 26 10 49 0 27 6 48 15 56 11 9 15 32 15 80 0 48 4 71 15 80 11 9 15 34
15 96 0 45 5 86 10 89 6 4 10 56 10 124 0 88 4 122 15 137 22 29 22 856 0 874
-12 10 -15 37 -15 121 0 61 -4 110 -10 114 -5 3 -10 41 -10 84 0 52 -5 83 -15
97 -9 12 -14 43 -15 85 0 47 -4 70 -15 79 -9 8 -15 29 -15 56 0 23 -4 46 -10
49 -5 3 -10 32 -10 64 0 40 -5 63 -15 71 -9 7 -15 29 -15 52 0 22 -7 46 -15
54 -8 9 -15 28 -15 44 0 16 -4 32 -10 35 -5 3 -10 23 -10 44 0 20 -7 46 -15
57 -8 10 -15 31 -15 46 0 15 -4 30 -10 33 -5 3 -10 19 -10 34 0 16 -7 34 -15
41 -8 7 -15 27 -15 45 0 20 -6 35 -15 39 -9 3 -15 18 -15 34 0 30 -24 87 -41
97 -5 4 -9 21 -9 40 0 19 -4 36 -9 40 -14 8 -41 65 -41 85 0 9 -36 88 -80 176
-44 87 -80 164 -80 171 0 6 -4 13 -8 15 -4 2 -32 51 -60 109 -29 59 -62 115
-72 124 -11 10 -20 26 -20 35 0 10 -7 23 -15 30 -8 7 -15 18 -15 25 0 7 -7 19
-16 26 -9 7 -29 41 -45 74 -16 34 -38 70 -49 80 -11 10 -20 23 -20 28 0 5 -18
29 -40 53 -22 24 -40 50 -40 57 0 7 -11 24 -25 37 -14 13 -25 29 -25 36 0 7
-18 32 -40 55 -22 24 -40 48 -40 54 0 6 -22 33 -50 60 -27 27 -50 56 -50 63 0
8 -36 51 -80 96 -44 45 -80 87 -80 94 0 15 -376 392 -391 392 -6 0 -48 36 -93
80 -45 44 -88 80 -95 80 -7 0 -38 25 -70 55 -32 30 -62 55 -68 55 -5 0 -28 18
-51 40 -22 22 -47 40 -54 40 -8 0 -25 11 -38 25 -13 14 -31 25 -40 25 -9 0
-34 18 -55 40 -21 22 -44 40 -50 40 -6 0 -22 11 -35 25 -13 14 -31 25 -41 25
-9 0 -22 7 -29 15 -7 8 -21 15 -30 15 -10 0 -27 11 -38 25 -11 14 -27 25 -35
25 -8 0 -20 7 -27 15 -7 8 -20 15 -30 15 -9 0 -25 9 -34 19 -18 20 -193 111
-214 111 -7 0 -12 4 -12 8 0 9 -69 42 -87 42 -6 0 -16 7 -23 15 -7 8 -21 15
-31 15 -11 0 -19 4 -19 8 0 5 -17 15 -37 24 -21 8 -45 18 -53 22 -8 3 -33 17
-55 31 -22 13 -52 24 -67 25 -16 0 -28 5 -28 10 0 6 -11 10 -24 10 -13 0 -26
7 -30 15 -3 9 -18 15 -40 15 -19 0 -36 3 -38 8 -6 14 -70 42 -98 42 -15 0 -33
7 -40 15 -7 8 -25 15 -41 15 -15 0 -31 5 -34 10 -3 6 -16 10 -29 10 -12 0 -31
7 -42 15 -10 8 -30 15 -44 15 -14 0 -34 7 -44 15 -11 8 -37 15 -57 15 -21 0
-41 5 -44 10 -3 6 -22 10 -41 10 -22 0 -37 6 -40 15 -4 10 -20 15 -51 15 -26
0 -51 6 -59 15 -10 10 -35 15 -69 15 -30 0 -57 5 -60 10 -3 6 -26 10 -49 10
-27 0 -48 6 -56 15 -9 11 -32 15 -79 15 -42 1 -73 6 -85 15 -14 10 -45 15 -97
15 -43 0 -81 5 -84 10 -4 6 -53 10 -114 10 -84 0 -111 3 -121 15 -18 22 -866
23 -896 0z m1665 -1376 c202 -33 303 -52 366 -71 39 -11 93 -27 120 -35 160
-47 395 -166 557 -281 122 -87 334 -287 384 -361 13 -20 43 -63 66 -96 77
-106 116 -185 93 -185 -3 0 -52 27 -108 61 -116 69 -398 209 -532 264 -49 20
-99 41 -110 46 -58 26 -301 108 -505 170 -75 22 -233 56 -390 84 -102 18 -381
38 -415 29 l-25 -6 0 -1032 c0 -567 -4 -1037 -9 -1044 -7 -11 -22 -11 -87 2
-142 27 -251 39 -311 33 -243 -25 -274 -33 -443 -105 -429 -182 -710 -615
-710 -1092 0 -384 173 -726 486 -962 335 -254 827 -302 1214 -119 370 174 630
532 676 931 10 92 12 347 7 1283 -6 1039 -5 1167 9 1167 32 0 178 -89 328
-199 382 -280 696 -682 864 -1106 46 -114 54 -136 80 -225 14 -47 30 -98 35
-115 6 -16 19 -77 31 -135 11 -58 25 -127 30 -155 14 -70 30 -298 30 -421 0
-132 -17 -394 -30 -459 -6 -27 -19 -102 -31 -165 -11 -63 -24 -128 -29 -145
-5 -16 -16 -57 -25 -90 -132 -484 -382 -967 -714 -1380 -64 -80 -171 -195
-181 -195 -3 0 -5 101 -6 224 -1 123 -4 236 -8 252 l-8 29 -19 -24 c-10 -13
-19 -31 -19 -41 0 -10 -16 -59 -35 -109 -123 -318 -376 -665 -700 -961 -155
-142 -171 -156 -265 -226 -335 -251 -598 -391 -924 -493 -75 -23 -103 -28
-113 -20 -10 9 -13 51 -13 180 0 134 -3 169 -13 169 -8 0 -43 -28 -78 -62 -82
-80 -158 -139 -286 -222 -179 -116 -485 -260 -683 -322 -30 -9 -59 -20 -65
-24 -16 -13 -297 -80 -403 -97 -122 -20 -425 -28 -481 -13 -34 9 -44 18 -65
61 -29 56 -106 280 -106 307 0 9 -10 44 -21 77 -11 33 -24 83 -29 110 -5 28
-16 82 -25 120 -9 39 -25 135 -35 215 -11 80 -24 176 -30 214 -35 230 -39
1046 -6 1241 8 50 22 142 31 205 9 63 20 126 24 140 5 14 17 54 26 90 20 77
32 111 57 168 10 23 21 56 25 74 5 27 4 30 -11 25 -10 -4 -36 -10 -59 -13 -91
-13 -252 -61 -397 -119 -76 -30 -74 -29 -212 -94 -117 -55 -153 -67 -161 -54
-6 9 18 224 32 293 5 25 16 83 25 130 9 47 23 110 31 140 9 30 22 84 30 120
33 145 200 639 225 664 6 6 10 16 10 23 0 8 16 48 35 89 19 41 35 77 35 80 0
11 139 289 208 414 124 225 283 461 456 675 110 137 319 348 435 442 53 43 98
80 101 83 3 3 38 26 78 53 39 26 72 49 72 52 0 3 -17 12 -37 21 -72 32 -502
30 -725 -3 -26 -3 -38 -1 -38 7 0 10 62 104 80 120 3 3 25 32 50 65 51 70 50
67 171 210 201 234 469 488 694 658 320 240 596 397 930 531 222 90 333 124
535 170 158 35 277 56 325 57 22 1 51 5 65 9 38 12 493 12 569 -1z"/>
</g>
</svg>
